<mxfile host="app.diagrams.net" modified="2023-12-12T16:14:58.362Z" agent="Mozilla/5.0 (X11; Ubuntu; Linux x86_64; rv:120.0) Gecko/20100101 Firefox/120.0" version="22.1.7" etag="cbrb1iypElgT6Ps7-Vz3" type="github">
  <diagram name="Page-1" id="O_wXmpSyy7TQQd4DrszY">
    <mxGraphModel>
      <root>
        <mxCell id="0" />
        <mxCell id="1" parent="0" />
      </root>
    </mxGraphModel>
  </diagram>
</mxfile>
